<?xml version="1.0" standalone="no"?><!DOCTYPE svg PUBLIC "-//W3C//DTD SVG 1.1//EN" "http://www.w3.org/Graphics/SVG/1.1/DTD/svg11.dtd"><svg t="1711356333496" class="icon" viewBox="0 0 1024 1024" version="1.1" xmlns="http://www.w3.org/2000/svg" p-id="4265" xmlns:xlink="http://www.w3.org/1999/xlink" width="200" height="200"><path d="M512 1016.96C233.6 1016.96 7.04 790.4 7.04 512S233.6 7.04 512 7.04 1016.96 233.6 1016.96 512 790.4 1016.96 512 1016.96z m0-945.92C268.8 71.04 71.04 268.8 71.04 512S268.8 952.96 512 952.96 952.96 755.2 952.96 512 755.2 71.04 512 71.04z" fill="#2c2c2c" p-id="4266"></path><path d="M668.48 700.48c-8.32 0-16.32-3.2-22.72-9.28l-312.96-312.96a31.872 31.872 0 1 1 45.12-45.12l312.96 312.96a31.872 31.872 0 0 1-22.4 54.4z" fill="#2c2c2c" p-id="4267"></path><path d="M355.52 700.48c-8.32 0-16.32-3.2-22.72-9.28a31.872 31.872 0 0 1 0-45.12l312.96-312.96a31.872 31.872 0 1 1 45.12 45.12l-312.96 312.96c-6.08 6.08-14.08 9.28-22.4 9.28z" fill="#2c2c2c" p-id="4268"></path></svg>