<?xml version="1.0" standalone="no"?><!DOCTYPE svg PUBLIC "-//W3C//DTD SVG 1.1//EN" "http://www.w3.org/Graphics/SVG/1.1/DTD/svg11.dtd"><svg t="1710853207100" class="icon" viewBox="0 0 1025 1024" version="1.1" xmlns="http://www.w3.org/2000/svg" p-id="7354" xmlns:xlink="http://www.w3.org/1999/xlink" width="200.1953125" height="200"><path d="M961.045769 384.129498c-1.803825 0-3.510147-0.390016-5.289596-0.536273L897.058719 1024H129.214116L70.516662 383.593225c-1.779449 0.146256-3.461395 0.536272-5.289597 0.536273a64.572075 64.572075 0 1 1 42.584906-16.551317l213.363295 208.512467 169.55959-452.150779a63.98705 63.98705 0 1 1 44.803123 0l169.559589 452.150779 213.363295-208.512467a63.74329 63.74329 0 1 1 42.584906 16.551317z m-223.966864 447.909351H289.169553a32.005713 32.005713 0 1 0 0 63.987051h447.909352a32.005713 32.005713 0 1 0 0-63.987051z" fill="#FFD012" p-id="7355"></path><path d="M513.136417 832.038849h-223.966864a32.005713 32.005713 0 1 0 0 63.987051H513.136417V1024H129.214116L70.516662 383.593225c-1.779449 0.146256-3.461395 0.536272-5.289597 0.536273a64.572075 64.572075 0 1 1 42.584906-16.551317l213.363295 208.512467 169.55959-452.150779A63.86517 63.86517 0 0 1 513.136417 0.207196v831.831653z" fill="#FFFFFF" fill-opacity=".3" p-id="7356"></path><path d="M494.830027 780.239809H559.450854V495.040385h-55.406692l-75.565659 35.101467 10.969208 50.043968 54.431651-25.887333h0.877537V780.239809z" fill="#D87D00" p-id="7357"></path></svg>