<?xml version="1.0" standalone="no"?><!DOCTYPE svg PUBLIC "-//W3C//DTD SVG 1.1//EN" "http://www.w3.org/Graphics/SVG/1.1/DTD/svg11.dtd"><svg t="1709380574859" class="icon" viewBox="0 0 1024 1024" version="1.1" xmlns="http://www.w3.org/2000/svg" p-id="8016" xmlns:xlink="http://www.w3.org/1999/xlink" width="200" height="200"><path d="M505.3 484.1c115.8 0 210.1-94.2 210.1-210.1S621.1 64 505.3 64s-210.1 94.2-210.1 210.1 94.3 210 210.1 210z m0-383.6c95.7 0 173.5 77.8 173.5 173.5S601 447.6 505.3 447.6s-173.5-77.8-173.5-173.5 77.8-173.6 173.5-173.6zM841.1 623.3l-7.4-4.7c-179-114-182.4-116.2-319.2-116.2-136.7 0-140.5 2.4-341.1 125.6-0.2 0.1-0.4 0.2-0.5 0.4-54.1 36-78.4 192.3-78.4 228.4 0 22.9 7.6 41.8 22.5 56.4 43.6 42.5 140.9 40.1 275.5 36.8 38-0.9 77.3-1.9 118.5-1.9s80.5 1 118.5 1.9c34.3 0.8 66.1 1.6 95.3 1.6 85.4 0 147.7-6.7 180.2-38.4 14.9-14.6 22.5-33.6 22.5-56.4-0.2-36.9-27-196.4-86.4-233.5zM879.2 887c-32.6 31.8-132.9 29.3-249 26.4-38.2-0.9-77.7-1.9-119.4-1.9s-81.2 1-119.4 1.9c-116.2 2.9-216.5 5.4-249-26.4-7.8-7.7-11.5-17.3-11.5-30.3 0-42.8 28.1-174.9 61.9-197.9 195.3-120 195.4-120 321.7-120 126.2 0 126.2 0 299.6 110.5l7.5 4.8c0.1 0 0.1 0.1 0.2 0.1 38.4 23.9 69 157.5 69 202.4-0.1 13.1-3.7 22.7-11.6 30.4z" p-id="8017" fill="#8eaeca"></path></svg>