<?xml version="1.0" standalone="no"?><!DOCTYPE svg PUBLIC "-//W3C//DTD SVG 1.1//EN" "http://www.w3.org/Graphics/SVG/1.1/DTD/svg11.dtd"><svg t="1710854775558" class="icon" viewBox="0 0 1024 1024" version="1.1" xmlns="http://www.w3.org/2000/svg" p-id="10945" xmlns:xlink="http://www.w3.org/1999/xlink" width="200" height="200"><path d="M264.277333 557.448533l-1.467733-10.274133h-80.622933l2.935466 14.677333c21.981867 136.311467 133.393067 247.722667 269.704534 269.704534l14.677333 2.935466v-76.2368l-10.274133-1.450666c-102.6048-20.5312-178.8416-98.218667-194.952534-199.355734z m1.467734-90.897066c19.0464-99.669333 95.266133-177.3568 193.4848-197.888l10.257066-1.467734V190.976l-14.660266 2.935467c-136.311467 21.981867-247.722667 133.393067-269.704534 269.7216l-2.935466 14.660266h80.622933l2.935467-11.741866z m489.591466-1.450667l1.467734 10.24h80.605866l-2.9184-14.6432c-21.998933-136.328533-133.393067-247.722667-269.7216-269.7216l-14.660266-2.935467v80.622934l10.257066 1.467733c101.154133 21.998933 177.373867 98.218667 194.9696 194.9696z m-71.8336 52.770133v-11.741866c-5.853867-90.88-77.687467-161.2288-168.567466-161.2288-46.916267 0-89.429333 17.578667-123.136 51.3024-32.256 32.256-51.3024 77.687467-51.3024 123.118933 0 93.815467 77.687467 170.052267 174.421333 170.052267 92.3648-2.935467 168.584533-77.704533 168.584533-171.52zM512 608.750933c-52.770133 0-93.815467-41.045333-93.815467-93.815466s41.045333-93.815467 93.815467-93.815467 93.815467 41.045333 93.815467 93.815467-41.045333 93.815467-93.815467 93.815466z" fill="#1A1A1A" p-id="10946"></path><path d="M512 844.782933V989.866667C248.149333 989.866667 34.133333 775.850667 34.133333 512S248.149333 34.133333 512 34.133333s477.866667 214.016 477.866667 477.866667h-143.650134c0-17.578667 14.660267-32.256 32.256-32.256h36.642134C898.986667 283.323733 742.144 125.013333 544.256 108.885333v38.109867c0 17.595733-14.677333 32.256-32.256 32.256-17.578667 0-32.256-14.660267-32.256-32.256V108.885333C281.856 123.562667 125.013333 281.856 108.885333 479.744H148.48c17.578667 0 32.238933 14.677333 32.238933 32.256 0 17.578667-14.660267 32.256-32.256 32.256H108.885333c16.128 197.888 174.4384 354.730667 372.3264 370.858667v-38.109867c0-17.1008 13.858133-31.4368 30.788267-32.221867zM108.1856 512v-2.935467V512zM989.866667 517.12L512 973.312l38.109867-110.677333 89.924266 52.48v-114.056534h155.886934l-69.751467-60.706133 132.283733 16.145067-62.532266-119.415467h140.612266l-99.1232-89.9072L989.866667 517.137067z" fill="#1A1A1A" p-id="10947"></path></svg>