<?xml version="1.0" standalone="no"?><!DOCTYPE svg PUBLIC "-//W3C//DTD SVG 1.1//EN" "http://www.w3.org/Graphics/SVG/1.1/DTD/svg11.dtd"><svg t="1710854963355" class="icon" viewBox="0 0 1024 1024" version="1.1" xmlns="http://www.w3.org/2000/svg" p-id="18075" xmlns:xlink="http://www.w3.org/1999/xlink" width="200" height="200"><path d="M817.152 642.56c82.944-17.92 137.216-41.472 155.136-64.512L936.96 492.032c-37.376 21.504-91.648 38.4-154.112 51.2l34.304 99.328zM996.352 637.952c-88.576 52.224-267.264 81.408-444.928 84.992v95.232c282.112-4.608 463.36-67.584 472.576-112.64l-27.648-67.584zM551.424 514.56c205.824-4.608 341.504-48.128 360.448-82.432L877.568 348.16c-72.192 36.864-197.632 57.344-326.144 60.416v105.984zM743.424 655.872l-34.304-100.352c-62.464 7.68-129.536 12.288-195.584 12.288h-1.024-0.512H510.464c-66.048 0-133.12-4.096-195.584-12.288l-34.304 100.352c65.024 9.728 142.848 14.848 229.888 14.848h3.072c87.04 0 164.864-5.12 229.888-14.848zM510.464 345.6h3.072c208.384 0 335.872-45.568 335.872-69.632 0-24.576-127.488-69.632-335.872-69.632h-3.072c-208.384 0-335.872 45.056-335.872 69.632 0 24.064 127.488 69.632 335.872 69.632zM206.848 642.56l34.304-99.328c-62.464-12.8-116.736-29.696-154.112-51.2l-35.328 86.016c17.92 23.04 72.192 46.592 155.136 64.512zM0 705.024c9.216 45.056 190.464 107.52 472.576 112.64v-95.232c-177.664-3.584-356.352-32.256-444.928-84.992L0 705.024zM472.576 514.56V408.576c-129.024-3.072-253.952-23.552-326.144-60.416l-34.304 83.456c18.944 34.816 154.624 77.824 360.448 82.944z" fill="#333333" p-id="18076"></path></svg>