<?xml version="1.0" standalone="no"?><!DOCTYPE svg PUBLIC "-//W3C//DTD SVG 1.1//EN" "http://www.w3.org/Graphics/SVG/1.1/DTD/svg11.dtd"><svg t="1710988165600" class="icon" viewBox="0 0 1024 1024" version="1.1" xmlns="http://www.w3.org/2000/svg" p-id="1515" xmlns:xlink="http://www.w3.org/1999/xlink" width="200" height="200"><path d="M512 512m-512 0a512 512 0 1 0 1024 0 512 512 0 1 0-1024 0Z" fill="#1990FF" opacity=".2" p-id="1516"></path><path d="M512 512m-409.6 0a409.6 409.6 0 1 0 819.2 0 409.6 409.6 0 1 0-819.2 0Z" fill="#1990FF" p-id="1517"></path><path d="M47.786667 75.093333m-47.786667 0a47.786667 47.786667 0 1 0 95.573333 0 47.786667 47.786667 0 1 0-95.573333 0Z" fill="#1990FF" p-id="1518"></path><path d="M1003.52 921.6m-20.48 0a20.48 20.48 0 1 0 40.96 0 20.48 20.48 0 1 0-40.96 0Z" fill="#1990FF" p-id="1519"></path><path d="M512 512m-360.994133 0a360.994133 360.994133 0 1 0 721.988266 0 360.994133 360.994133 0 1 0-721.988266 0Z" fill="#FFFFFF" p-id="1520"></path><path d="M768.068267 383.453867A278.459733 278.459733 0 0 0 537.258667 221.3888a27.306667 27.306667 0 0 0-23.893334 10.24c-30.037333 38.570667-49.7664 82.875733 17.681067 82.875733 119.261867 0 88.2688 87.8592-45.329067 94.139734S389.7344 509.064533 465.1008 518.826667s72.226133 65.9456 72.226133 87.8592S603.272533 615.765333 634.88 568.661333s65.9456-97.28 62.737067-128.682666c-1.297067-13.653333 20.48-17.544533 46.353066-18.0224a27.306667 27.306667 0 0 0 24.098134-38.5024z" fill="#70CAFF" p-id="1521"></path><path d="M179.268267 844.049067h120.285866s103.150933 46.967467 191.146667 47.786666c120.354133 0.955733 253.405867-78.848 259.413333-83.626666 27.8528-21.7088 38.843733-84.104533-70.109866-57.821867s-183.5008 25.531733-212.923734-7.714133c-21.7088-24.507733 47.786667-31.5392 85.879467-33.5872 18.090667-0.955733 57.821867-15.837867 57.821867-37.546667 0-26.4192-37.000533-34.133333-89.224534-34.133333-93.457067 0-67.652267-18.705067-122.0608-15.837867S293.546667 682.666667 293.546667 682.666667H179.268267z" fill="#FF9600" p-id="1522"></path><path d="M492.817067 271.428267a37.819733 37.819733 0 0 0-26.555734-10.8544 37.2736 37.2736 0 0 0-37.546666 37.0688c0 25.531733 28.740267 51.8144 28.740266 51.8144a12.014933 12.014933 0 0 0 17.408 0s28.945067-24.917333 28.945067-51.8144a36.795733 36.795733 0 0 0-10.990933-26.2144z m-26.555734 42.120533a14.813867 14.813867 0 0 1-14.7456-14.813867 14.7456 14.7456 0 1 1 14.7456 14.813867z" fill="#FF9600" p-id="1523"></path></svg>