<?xml version="1.0" standalone="no"?><!DOCTYPE svg PUBLIC "-//W3C//DTD SVG 1.1//EN" "http://www.w3.org/Graphics/SVG/1.1/DTD/svg11.dtd"><svg t="1710988190955" class="icon" viewBox="0 0 1024 1024" version="1.1" xmlns="http://www.w3.org/2000/svg" p-id="1850" xmlns:xlink="http://www.w3.org/1999/xlink" width="200" height="200"><path d="M512 512m-512 0a512 512 0 1 0 1024 0 512 512 0 1 0-1024 0Z" fill="#1990FF" opacity=".2" p-id="1851"></path><path d="M512 512m-409.6 0a409.6 409.6 0 1 0 819.2 0 409.6 409.6 0 1 0-819.2 0Z" fill="#1990FF" p-id="1852"></path><path d="M47.786667 75.093333m-47.786667 0a47.786667 47.786667 0 1 0 95.573333 0 47.786667 47.786667 0 1 0-95.573333 0Z" fill="#1990FF" p-id="1853"></path><path d="M1003.52 921.6m-20.48 0a20.48 20.48 0 1 0 40.96 0 20.48 20.48 0 1 0-40.96 0Z" fill="#1990FF" p-id="1854"></path><path d="M512 819.2c-28.945067 0-61.986133-10.103467-98.167467-29.969067a444.8256 444.8256 0 0 1-83.421866-60.279466A388.027733 388.027733 0 0 1 233.6768 587.093333l-1.570133-4.232533V314.845867a26.555733 26.555733 0 0 1 26.8288-26.555734h2.389333A315.460267 315.460267 0 0 0 358.4 273.066667h0.6144a537.463467 537.463467 0 0 0 137.762133-63.488l0.750934-0.546134a26.624 26.624 0 0 1 28.125866-0.4096l0.8192 0.477867A705.604267 705.604267 0 0 0 665.326933 273.066667a391.645867 391.645867 0 0 0 66.9696 14.336 187.050667 187.050667 0 0 0 22.3232 1.501866h7.168a26.624 26.624 0 0 1 30.1056 25.941334v268.014933l-1.501866 3.959467a388.3008 388.3008 0 0 1-96.597334 141.9264 445.576533 445.576533 0 0 1-83.626666 60.484266C573.986133 809.096533 540.945067 819.2 512 819.2z" fill="#70CAFF" p-id="1855"></path><path d="M407.005867 374.715733m51.473066 0l374.920534 0q51.473067 0 51.473066 51.473067l0 374.920533q0 51.473067-51.473066 51.473067l-374.920534 0q-51.473067 0-51.473066-51.473067l0-374.920533q0-51.473067 51.473066-51.473067Z" fill="#FFFFFF" p-id="1856"></path><path d="M569.9584 542.856533a7.304533 7.304533 0 0 0 5.051733-2.048 101.649067 101.649067 0 0 1 139.195734-2.4576 7.304533 7.304533 0 0 0 10.24-0.477866 7.236267 7.236267 0 0 0-0.546134-10.24 116.053333 116.053333 0 0 0-159.061333 2.798933 6.826667 6.826667 0 0 0-2.184533 5.12 7.236267 7.236267 0 0 0 7.304533 7.304533zM544.631467 620.612267v-7.3728a100.7616 100.7616 0 0 1 14.7456-52.497067 7.236267 7.236267 0 0 0-2.4576-9.898667 7.304533 7.304533 0 0 0-9.966934 2.389334 115.165867 115.165867 0 0 0-16.7936 60.074666v8.465067a7.236267 7.236267 0 0 0 7.236267 6.826667h0.546133a7.236267 7.236267 0 0 0 6.690134-7.9872zM742.536533 549.205333a7.236267 7.236267 0 0 0-10.0352-2.048 7.168 7.168 0 0 0-2.048 9.966934 100.5568 100.5568 0 0 1 16.9984 56.046933 103.6288 103.6288 0 0 1-4.369066 29.559467 7.168 7.168 0 0 0 4.778666 9.0112 7.509333 7.509333 0 0 0 2.116267 0 7.236267 7.236267 0 0 0 6.826667-5.12 115.0976 115.0976 0 0 0-14.404267-97.757867zM645.9392 552.072533a61.44 61.44 0 0 0-61.44 60.962134 97.553067 97.553067 0 0 1-1.024 12.834133 6.826667 6.826667 0 0 0-0.682667 3.072 7.236267 7.236267 0 0 0 7.236267 7.236267 7.236267 7.236267 0 0 0 5.461333-2.525867c3.140267-3.549867 3.4816-15.633067 3.4816-20.48A46.967467 46.967467 0 0 1 645.9392 566.613333a46.148267 46.148267 0 0 1 13.312 1.911467 7.236267 7.236267 0 0 0 9.0112-4.846933 6.826667 6.826667 0 0 0-4.846933-8.942934 60.484267 60.484267 0 0 0-17.476267-2.6624zM707.310933 613.102933a63.965867 63.965867 0 0 0-2.798933-18.0224 60.347733 60.347733 0 0 0-11.946667-21.640533 7.236267 7.236267 0 0 0-10.24-0.8192 7.168 7.168 0 0 0-0.8192 10.171733 47.104 47.104 0 0 1 9.147734 16.452267 49.083733 49.083733 0 0 1 2.116266 14.062933 185.821867 185.821867 0 0 1-28.398933 101.922134 7.168 7.168 0 0 0 6.212267 10.990933 6.826667 6.826667 0 0 0 6.144-3.4816 198.997333 198.997333 0 0 0 30.583466-109.704533z" fill="#FF9600" p-id="1857"></path><path d="M617.335467 544.836267a7.236267 7.236267 0 0 0-5.597867-13.653334 88.746667 88.746667 0 0 0-54.613333 81.3056A67.857067 67.857067 0 0 1 541.149867 655.36a7.168 7.168 0 0 0-1.570134 5.3248 7.304533 7.304533 0 0 0 12.9024 3.6864 82.3296 82.3296 0 0 0 19.114667-51.541333 74.001067 74.001067 0 0 1 45.738667-67.9936zM546.816 667.0336zM727.517867 606.0032a7.304533 7.304533 0 0 0-7.304534 7.236267c0 35.976533-5.3248 63.8976-15.837866 82.807466a7.168 7.168 0 0 0 2.8672 9.762134 6.826667 6.826667 0 0 0 3.4816 0.887466 7.304533 7.304533 0 0 0 6.075733-3.549866c11.741867-21.162667 17.681067-51.336533 17.681067-89.838934a7.236267 7.236267 0 0 0-6.9632-7.304533zM716.049067 588.5952a7.236267 7.236267 0 0 0 6.826666 4.778667 6.826667 6.826667 0 0 0 2.389334-0.4096 6.826667 6.826667 0 0 0 4.437333-9.216 89.088 89.088 0 0 0-88.746667-58.914134 6.826667 6.826667 0 0 0-6.826666 7.645867A7.236267 7.236267 0 0 0 641.706667 539.306667h4.369066a74.478933 74.478933 0 0 1 69.973334 49.288533zM587.093333 652.4928a7.236267 7.236267 0 0 0-13.653333 0 54.613333 54.613333 0 0 1-16.725333 24.576 7.236267 7.236267 0 0 0 4.5056 12.9024 6.826667 6.826667 0 0 0 4.437333-1.570133A69.0176 69.0176 0 0 0 587.093333 658.090667a7.236267 7.236267 0 0 0 0-5.597867zM678.5024 641.706667a7.304533 7.304533 0 0 0-6.212267-8.192 7.236267 7.236267 0 0 0-8.192 6.144 157.764267 157.764267 0 0 1-12.9024 44.032 165.614933 165.614933 0 0 1-21.026133 34.133333 7.441067 7.441067 0 0 0-1.501867 5.3248 7.304533 7.304533 0 0 0 12.9024 3.6864 180.292267 180.292267 0 0 0 22.869334-37.137067A173.192533 173.192533 0 0 0 678.5024 641.706667zM635.904 729.7024zM650.786133 643.072a143.906133 143.906133 0 0 0 2.116267-30.173867 7.236267 7.236267 0 0 0-7.441067-6.826666 7.236267 7.236267 0 0 0-6.826666 7.441066 129.706667 129.706667 0 0 1-1.979734 27.306667A140.629333 140.629333 0 0 1 600.746667 710.656a6.826667 6.826667 0 0 0-1.979734 5.188267 7.304533 7.304533 0 0 0 12.629334 4.642133 154.555733 154.555733 0 0 0 39.389866-77.4144zM605.7984 722.807467z" fill="#FF9600" p-id="1858"></path><path d="M621.226667 649.8304a122.88 122.88 0 0 0 4.5056-34.884267v-1.706666a19.933867 19.933867 0 0 1 39.799466 0 7.304533 7.304533 0 0 0 7.236267 7.236266 7.304533 7.304533 0 0 0 7.236267-7.236266 34.133333 34.133333 0 0 0-68.8128 0V614.4a107.3152 107.3152 0 0 1-3.618134 31.197867 124.586667 124.586667 0 0 1-32.494933 51.336533 6.826667 6.826667 0 0 0 0 10.171733 6.826667 6.826667 0 0 0 5.051733 2.116267 7.304533 7.304533 0 0 0 5.188267-2.184533A137.693867 137.693867 0 0 0 621.226667 649.8304zM580.266667 709.290667z" fill="#FF9600" p-id="1859"></path><path d="M485.239467 528.5888a10.376533 10.376533 0 0 1-10.376534-10.376533v-37.4784a37.819733 37.819733 0 0 1 37.751467-37.751467h50.449067a10.376533 10.376533 0 0 1 0 20.48h-50.449067a17.066667 17.066667 0 0 0-16.9984 16.9984v37.4784a10.376533 10.376533 0 0 1-10.376533 10.6496zM563.063467 784.315733h-50.449067a37.819733 37.819733 0 0 1-37.751467-37.819733v-37.410133a10.376533 10.376533 0 1 1 20.48 0v37.410133a17.066667 17.066667 0 0 0 16.9984 17.066667h50.449067a10.376533 10.376533 0 0 1 0 20.48zM806.638933 528.5888a10.376533 10.376533 0 0 1-10.376533-10.376533v-37.4784a17.066667 17.066667 0 0 0-17.066667-16.9984h-50.3808a10.376533 10.376533 0 0 1 0-20.48h50.3808a37.819733 37.819733 0 0 1 37.819734 37.751466v37.4784a10.376533 10.376533 0 0 1-10.376534 10.103467zM779.195733 784.315733h-50.3808a10.376533 10.376533 0 0 1 0-20.48h50.3808a17.066667 17.066667 0 0 0 17.066667-17.066666v-37.410134a10.376533 10.376533 0 0 1 20.48 0v37.410134a37.888 37.888 0 0 1-37.546667 37.546666z" fill="#5BC1F4" p-id="1860"></path></svg>