<?xml version="1.0" standalone="no"?><!DOCTYPE svg PUBLIC "-//W3C//DTD SVG 1.1//EN" "http://www.w3.org/Graphics/SVG/1.1/DTD/svg11.dtd"><svg t="1710988158208" class="icon" viewBox="0 0 1024 1024" version="1.1" xmlns="http://www.w3.org/2000/svg" p-id="1348" xmlns:xlink="http://www.w3.org/1999/xlink" width="200" height="200"><path d="M512 512m-512 0a512 512 0 1 0 1024 0 512 512 0 1 0-1024 0Z" fill="#1990FF" opacity=".2" p-id="1349"></path><path d="M512 511.522133m-409.6 0a409.6 409.6 0 1 0 819.2 0 409.6 409.6 0 1 0-819.2 0Z" fill="#1990FF" p-id="1350"></path><path d="M47.786667 74.615467m-47.786667 0a47.786667 47.786667 0 1 0 95.573333 0 47.786667 47.786667 0 1 0-95.573333 0Z" fill="#1990FF" p-id="1351"></path><path d="M1003.52 921.122133m-20.48 0a20.48 20.48 0 1 0 40.96 0 20.48 20.48 0 1 0-40.96 0Z" fill="#1990FF" p-id="1352"></path><path d="M218.453333 770.6624l65.1264-328.567467H831.6928V363.246933a60.8256 60.8256 0 0 0-61.0304-60.484266H479.709867L436.906667 232.925867a60.962133 60.962133 0 0 0-52.155734-29.0816h-118.101333a60.757333 60.757333 0 0 0-61.0304 60.484266v484.215467a59.733333 59.733333 0 0 0 14.199467 38.7072 31.061333 31.061333 0 0 1-1.365334-16.5888z" fill="#5BC1F4" p-id="1353"></path><path d="M770.6624 707.037867l-542.993067 44.919466-78.4384-288.3584a48.878933 48.878933 0 0 1 34.6112-59.938133l424.3456-113.732267a49.015467 49.015467 0 0 1 60.0064 34.679467z" fill="#FFFFFF" p-id="1354"></path><path d="M849.1008 441.7536H283.784533L218.453333 770.6624a31.061333 31.061333 0 0 0 1.160534 16.657067c5.802667 16.384 25.3952 27.921067 51.063466 27.921066h504.149334c33.723733 0 64.989867-20.002133 69.905066-44.578133L901.12 486.331733c5.051733-24.644267-18.295467-44.578133-52.0192-44.578133z" fill="#70CAFF" p-id="1355"></path><path d="M348.3648 713.045333m20.48 0l382.293333 0q20.48 0 20.48 20.48l0 0q0 20.48-20.48 20.48l-382.293333 0q-20.48 0-20.48-20.48l0 0q0-20.48 20.48-20.48Z" fill="#FF9600" p-id="1356"></path></svg>