<?xml version="1.0" standalone="no"?><!DOCTYPE svg PUBLIC "-//W3C//DTD SVG 1.1//EN" "http://www.w3.org/Graphics/SVG/1.1/DTD/svg11.dtd"><svg t="1710855382436" class="icon" viewBox="0 0 1024 1024" version="1.1" xmlns="http://www.w3.org/2000/svg" p-id="20277" xmlns:xlink="http://www.w3.org/1999/xlink" width="200" height="200"><path d="M511.86 1023.72a511.86 511.86 0 1 1 512.326-511.86 512.512 512.512 0 0 1-512.326 511.86z m20.475-952.618v9.586a21.638 21.638 0 1 1-43.276 0V71.38A442.061 442.061 0 0 0 70.73 490.176h8.377a21.777 21.777 0 1 1 0 43.555H70.73a442.061 442.061 0 0 0 418.33 418.795v-9.307a21.638 21.638 0 1 1 43.275 0v9.679A442.061 442.061 0 0 0 952.99 533.684h-10.703a21.777 21.777 0 1 1 0-43.554h10.703A442.061 442.061 0 0 0 532.335 71.102z m44.671 775.98a21.73 21.73 0 1 1-7.91-42.717A300.276 300.276 0 0 0 804.55 568.863a21.219 21.219 0 0 1 13.96-16.566 21.545 21.545 0 0 1 21.405 4.142 21.917 21.917 0 0 1 7.446 20.66 344.622 344.622 0 0 1-270.356 270.076z m253.139-374.635a25.453 25.453 0 0 1-4.188 0.372 21.498 21.498 0 0 1-21.406-17.636 299.904 299.904 0 0 0-235.455-235.362 21.73 21.73 0 0 1 7.91-42.764 344.342 344.342 0 0 1 270.356 269.89 21.87 21.87 0 0 1-17.217 25.5zM697.99 512.14a186.131 186.131 0 1 1-186.13-186.131 186.131 186.131 0 0 1 186.13 186.13zM511.861 372.54A139.598 139.598 0 1 0 651.458 512.14 139.924 139.924 0 0 0 511.86 372.54z m-56.77-152.767a299.345 299.345 0 0 0-235.456 235.363 22.243 22.243 0 0 1-21.405 17.636 21.824 21.824 0 0 1-16.752-7.91 21.033 21.033 0 0 1-4.653-17.962 343.18 343.18 0 0 1 269.89-269.89 22.057 22.057 0 0 1 20.94 7.026 22.429 22.429 0 0 1 4.187 21.452 22.057 22.057 0 0 1-16.752 14.332zM205.208 552.251a21.777 21.777 0 0 1 14.426 16.566A299.392 299.392 0 0 0 455.09 804.272a21.87 21.87 0 0 1 17.683 23.267 22.29 22.29 0 0 1-21.87 19.73 21.312 21.312 0 0 1-4.188-0.42 343.18 343.18 0 0 1-269.89-269.89 20.614 20.614 0 0 1 6.98-20.66 21.777 21.777 0 0 1 21.404-4.002z" p-id="20278"></path></svg>