<?xml version="1.0" standalone="no"?><!DOCTYPE svg PUBLIC "-//W3C//DTD SVG 1.1//EN" "http://www.w3.org/Graphics/SVG/1.1/DTD/svg11.dtd"><svg t="1710988150977" class="icon" viewBox="0 0 1024 1024" version="1.1" xmlns="http://www.w3.org/2000/svg" p-id="1174" xmlns:xlink="http://www.w3.org/1999/xlink" width="200" height="200"><path d="M512 512m-512 0a512 512 0 1 0 1024 0 512 512 0 1 0-1024 0Z" fill="#1990FF" opacity=".2" p-id="1175"></path><path d="M512 512m-409.6 0a409.6 409.6 0 1 0 819.2 0 409.6 409.6 0 1 0-819.2 0Z" fill="#1990FF" p-id="1176"></path><path d="M47.786667 75.093333m-47.786667 0a47.786667 47.786667 0 1 0 95.573333 0 47.786667 47.786667 0 1 0-95.573333 0Z" fill="#1990FF" p-id="1177"></path><path d="M1003.52 921.6m-20.48 0a20.48 20.48 0 1 0 40.96 0 20.48 20.48 0 1 0-40.96 0Z" fill="#1990FF" p-id="1178"></path><path d="M355.669333 272.520533v185.412267L512 550.638933l156.330667-92.706133V272.520533L512 179.8144 355.669333 272.520533z" fill="#FFFFFF" p-id="1179"></path><path d="M355.669333 272.520533L512 365.226667l156.330667-92.706134L512 179.8144 355.669333 272.520533z" fill="#70CAFF" p-id="1180"></path><path d="M355.669333 272.520533v185.412267L512 550.638933V365.226667L355.669333 272.520533z" fill="#5BC1F4" p-id="1181"></path><path d="M355.669333 272.520533v185.412267L512 550.638933V365.226667L355.669333 272.520533z" fill="#5BC1F4" p-id="1182"></path><path d="M191.829333 566.0672v185.412267L348.16 844.1856l156.330667-92.706133V566.0672L348.16 473.361067 191.829333 566.0672z" fill="#FFFFFF" p-id="1183"></path><path d="M191.829333 566.0672L348.16 658.773333l156.330667-92.706133L348.16 473.361067 191.829333 566.0672z" fill="#70CAFF" p-id="1184"></path><path d="M191.829333 566.0672v185.412267L348.16 844.1856V658.773333L191.829333 566.0672z" fill="#5BC1F4" p-id="1185"></path><path d="M519.509333 566.0672v185.412267L675.84 844.1856l156.330667-92.706133V566.0672L675.84 473.361067 519.509333 566.0672z" fill="#FFFFFF" p-id="1186"></path><path d="M519.509333 566.0672L675.84 658.773333l156.330667-92.706133L675.84 473.361067 519.509333 566.0672z" fill="#70CAFF" p-id="1187"></path><path d="M519.509333 566.0672v185.412267L675.84 844.1856V658.773333L519.509333 566.0672z" fill="#5BC1F4" p-id="1188"></path><path d="M257.297067 620.544l-8.465067-1.911467c-78.711467-18.295467-120.968533-46.216533-122.333867-80.6912-1.024-26.282667 21.230933-50.244267 66.218667-71.202133A13.653333 13.653333 0 1 1 204.253867 491.52c-32.631467 15.223467-50.9952 31.812267-50.449067 45.397333 0.6144 15.428267 27.306667 38.024533 101.1712 55.227734 70.0416 16.247467 162.4064 23.074133 260.5056 19.182933 221.934933-8.738133 356.215467-65.604267 354.986667-102.4-0.546133-14.267733-22.869333-30.5152-59.733334-43.349333a13.653333 13.653333 0 0 1 8.465067-26.077867c50.722133 17.681067 76.936533 40.96 78.0288 68.266667 2.935467 75.093333-194.082133 123.630933-380.928 131.003733-96.392533 3.618133-188.0064-2.798933-259.003733-18.2272z" fill="#FF9600" p-id="1189"></path></svg>